<svg width="23" height="17" viewBox="0 0 23 17" fill="none"
    xmlns="http://www.w3.org/2000/svg">
    <path d="M21.2775 0.965524H1.72253C0.771174 0.965524 0 1.7367 0 2.68805V5.98851H23V2.68805C23 1.7367 22.2288 0.965524 21.2775 0.965524Z" fill="#F5F5F5"/>
    <path d="M0 14.3119C0 15.2633 0.771174 16.0345 1.72253 16.0345H21.2775C22.2288 16.0345 23 15.2633 23 14.3119V11.0115H0V14.3119Z" fill="#FF4B55"/>
    <path d="M23 5.98842H0V11.0111H23V5.98842Z" fill="#41479B"/>
    <path d="M5.84993 12.2413C5.73255 12.1739 2.97412 10.5695 2.97412 8.10343V4.73276H8.92241V8.10343C8.92241 10.5695 6.16398 12.1739 6.0466 12.2413L5.94826 12.2974L5.84993 12.2413Z" fill="#FF4B55"/>
    <path d="M7.50632 7.50862L6.57154 7.63175H6.26001V7.07391H6.44693L7.19475 7.19704L7.09345 6.76233L7.19475 6.32763L6.44693 6.45071H6.26001V6.26231L6.38314 5.32758L5.94843 5.45421L5.51372 5.32758L5.63685 6.26231V6.45071H5.44984L4.70211 6.32763L4.80337 6.76233L4.70211 7.19704L5.44984 7.07391H5.63685V7.63175H5.32527L4.39053 7.50862L4.51712 7.94333L4.39053 8.37799L5.32527 8.25486H5.63685V9.68967H6.26001V8.25486H6.57154L7.50632 8.37799L7.37973 7.94333L7.50632 7.50862Z" fill="#F5F5F5"/>
    <path d="M5.94822 9.09481C5.53862 9.09481 5.18733 9.34332 5.03622 9.69762C5.00953 9.69542 4.98402 9.68962 4.95684 9.68962C4.42896 9.68962 4.00153 10.1034 3.97125 10.6236C4.77423 11.6121 5.77999 12.2011 5.84989 12.2413L5.94822 12.2974L6.04655 12.2413C6.11645 12.2011 7.12221 11.6121 7.92519 10.6236C7.89495 10.1034 7.46748 9.68962 6.9396 9.68962C6.91242 9.68962 6.88686 9.69542 6.86022 9.69762C6.70911 9.34332 6.35782 9.09481 5.94822 9.09481Z" fill="#41479B"/>
    <path d="M8.72416 4.93105C8.72416 4.93105 8.72416 7.31038 8.72416 8.10347C8.72416 10.4828 5.94831 12.069 5.94831 12.069C5.94831 12.069 3.17245 10.4828 3.17245 8.10347C3.17245 7.31038 3.17245 4.93105 3.17245 4.93105H8.72416ZM9.12069 4.53448H8.72412H3.17245H2.77588V4.93105V8.10347C2.77588 10.6832 5.63008 12.3438 5.75155 12.4133L5.94831 12.5257L6.14506 12.4133C6.26658 12.3438 9.12073 10.6832 9.12073 8.10347V4.93105V4.53448H9.12069Z" fill="#F5F5F5"/>
</svg>
