<svg xmlns="http://www.w3.org/2000/svg"
    xmlns:xlink="http://www.w3.org/1999/xlink">
    <symbol id="facebook" viewBox="0 0 8 17">
        <path fill-rule="evenodd" clip-rule="evenodd" d="M5.26906 16.9823V8.49016H7.61327L7.92393 5.56372H5.26906L5.27305 4.099C5.27305 3.33574 5.34557 2.92677 6.44183 2.92677H7.90733V0H5.5628C2.74663 0 1.75541 1.41964 1.75541 3.80702V5.56405H0V8.49049H1.75541V16.9823H5.26906Z" fill="currentColor"/>
    </symbol>
    <symbol id="instagram" viewBox="0 0 17 17">
        <path fill-rule="evenodd" clip-rule="evenodd" d="M8.3256 0C6.0647 0 5.78096 0.00988583 4.89297 0.0502963C4.00671 0.0908803 3.40177 0.23119 2.87244 0.437058C2.3249 0.64969 1.86044 0.934124 1.39772 1.39702C0.934645 1.85975 0.65021 2.32421 0.436884 2.87157C0.230496 3.40107 0.0900131 4.00619 0.0501229 4.8921C0.0104061 5.78009 0 6.064 0 8.32491C0 10.5858 0.0100593 10.8687 0.0502963 11.7567C0.0910537 12.6429 0.231363 13.2479 0.437058 13.7772C0.649863 14.3247 0.934298 14.7892 1.3972 15.2519C1.85975 15.715 2.32421 16.0001 2.8714 16.2128C3.40107 16.4186 4.00619 16.5589 4.89227 16.5995C5.78026 16.6399 6.06383 16.6498 8.32456 16.6498C10.5856 16.6498 10.8685 16.6399 11.7565 16.5995C12.6428 16.5589 13.2484 16.4186 13.7781 16.2128C14.3254 16.0001 14.7892 15.715 15.2518 15.2519C15.7148 14.7892 15.9993 14.3247 16.2126 13.7774C16.4172 13.2479 16.5577 12.6428 16.5994 11.7569C16.6392 10.8689 16.6496 10.5858 16.6496 8.32491C16.6496 6.064 16.6392 5.78026 16.5994 4.89227C16.5577 4.00602 16.4172 3.40107 16.2126 2.87175C15.9993 2.32421 15.7148 1.85975 15.2518 1.39702C14.7887 0.933951 14.3256 0.649517 13.7776 0.437058C13.2468 0.23119 12.6416 0.0908803 11.7553 0.0502963C10.8673 0.00988583 10.5846 0 8.323 0H8.3256ZM7.57861 1.50037C7.80026 1.50003 8.04758 1.50037 8.32543 1.50037C10.5482 1.50037 10.8116 1.50835 11.6894 1.54824C12.5011 1.58536 12.9416 1.72098 13.235 1.83493C13.6235 1.98582 13.9005 2.16619 14.1917 2.45756C14.4831 2.74894 14.6635 3.02643 14.8147 3.41493C14.9286 3.70803 15.0644 4.14856 15.1014 4.96024C15.1413 5.83782 15.1499 6.10145 15.1499 8.32316C15.1499 10.5449 15.1413 10.8085 15.1014 11.6861C15.0643 12.4978 14.9286 12.9383 14.8147 13.2314C14.6638 13.6199 14.4831 13.8965 14.1917 14.1877C13.9003 14.4791 13.6237 14.6595 13.235 14.8103C12.9419 14.9248 12.5011 15.0601 11.6894 15.0972C10.8118 15.1371 10.5482 15.1458 8.32543 15.1458C6.1025 15.1458 5.83905 15.1371 4.96147 15.0972C4.14979 15.0597 3.70926 14.9241 3.41564 14.8102C3.02714 14.6593 2.74964 14.4789 2.45827 14.1875C2.1669 13.8962 1.98653 13.6194 1.83529 13.2307C1.72134 12.9376 1.58554 12.4971 1.5486 11.6854C1.50871 10.8078 1.50073 10.5442 1.50073 8.32108C1.50073 6.09798 1.50871 5.83574 1.5486 4.95816C1.58572 4.14648 1.72134 3.70595 1.83529 3.4125C1.98618 3.024 2.1669 2.74651 2.45827 2.45514C2.74964 2.16376 3.02714 1.98339 3.41564 1.83215C3.70909 1.71769 4.14979 1.58241 4.96147 1.54512C5.72944 1.51043 6.02706 1.50003 7.57861 1.49829V1.50037ZM12.7692 2.88267C12.2177 2.88267 11.7703 3.32962 11.7703 3.88132C11.7703 4.43284 12.2177 4.88031 12.7692 4.88031C13.3206 4.88031 13.7681 4.43284 13.7681 3.88132C13.7681 3.32979 13.3206 2.88232 12.7692 2.88232V2.88267ZM8.3253 4.0498C5.96435 4.0498 4.05017 5.96401 4.05017 8.32499C4.05017 10.686 5.96435 12.5993 8.3253 12.5993C10.6862 12.5993 12.5997 10.686 12.5997 8.32499C12.5997 5.96401 10.6861 4.0498 8.32512 4.0498H8.3253ZM8.32544 5.55029C9.85788 5.55029 11.1003 6.79261 11.1003 8.32526C11.1003 9.85773 9.85788 11.1002 8.32544 11.1002C6.79283 11.1002 5.55054 9.85773 5.55054 8.32526C5.55054 6.79261 6.79283 5.55029 8.32544 5.55029Z" fill="currentColor"/>
    </symbol>
    <symbol id="wallet" viewBox="0 0 32 32">
        <g clip-path="url(#clip0)">
            <path d="M2.56723 2.75567L18.6296 6.76613C20.5641 7.24946 22.1459 9.27583 22.1459 11.2708V25.7708C22.1459 27.7645 20.5581 29.0212 18.6175 28.5645L5.13252 25.3938C3.19194 24.9358 1.60419 22.9312 1.60419 20.9375V5.22913C1.60419 3.23417 3.23544 1.60413 5.22919 1.60413H25.7709C27.7646 1.60413 29.3959 3.23417 29.3959 5.22913V18.5208C29.3959 20.5145 27.7646 22.1458 25.7709 22.1458H22.1459" stroke="currentColor" stroke-width="2" stroke-miterlimit="10" stroke-linecap="round" stroke-linejoin="round"/>
            <path d="M12.4792 5.22913H24.5625" stroke="currentColor" stroke-width="2" stroke-miterlimit="10" stroke-linecap="round" stroke-linejoin="round"/>
            <path d="M16.7084 19.7291C18.043 19.7291 19.125 18.6471 19.125 17.3124C19.125 15.9777 18.043 14.8958 16.7084 14.8958C15.3737 14.8958 14.2917 15.9777 14.2917 17.3124C14.2917 18.6471 15.3737 19.7291 16.7084 19.7291Z" stroke="currentColor" stroke-width="2" stroke-miterlimit="10" stroke-linecap="round" stroke-linejoin="round"/>
            <path d="M22.1459 11.2708H24.5625" stroke="currentColor" stroke-width="2" stroke-miterlimit="10" stroke-linecap="round" stroke-linejoin="round"/>
        </g>
        <defs>
            <clipPath id="clip0">
                <rect width="29" height="29" fill="currentColor" transform="translate(1 1)"/>
            </clipPath>
        </defs>
    </symbol>
    <symbol id="logo" viewBox="0 0 220 56">
        <g clip-path="url(#clip0)">
            <path d="M78.8422 37.7381C76.1797 37.7381 73.8889 37.1935 71.9698 36.1043C70.0507 35.0151 68.5811 33.4677 67.561 31.4622C66.541 29.4739 66.0309 27.1485 66.0309 24.486C66.0309 21.858 66.5928 19.5499 67.7166 17.5616C68.8404 15.5561 70.4051 14.0087 72.4107 12.9195C74.4335 11.8303 76.733 11.2856 79.3091 11.2856C80.623 11.2856 81.8938 11.424 83.1213 11.7006C84.3662 11.9599 85.4381 12.323 86.3371 12.7898L85.8184 17.2245C83.7092 16.2563 81.5394 15.7722 79.3091 15.7722C76.6119 15.7722 74.5718 16.5589 73.1887 18.1322C71.8055 19.7228 71.114 21.8148 71.114 24.4082C71.114 27.088 71.7883 29.2318 73.1368 30.8397C74.5027 32.4476 76.465 33.2516 79.0238 33.2516C80.0611 33.2516 81.2282 33.1219 82.5249 32.8626V28.3242H79.0238V24.486H87.167V35.7931C86.2161 36.3636 85.0145 36.8305 83.5622 37.1935C82.0926 37.5566 80.5193 37.7381 78.8422 37.7381ZM99.2262 37.5825C97.3071 37.5825 95.6474 37.1589 94.2469 36.3118C92.8465 35.4646 91.7659 34.3235 91.0052 32.8885C90.2618 31.4708 89.8901 29.8975 89.8901 28.1686C89.8901 26.4569 90.2618 24.875 91.0052 23.4227C91.7659 21.9704 92.8465 20.8206 94.2469 19.9735C95.6474 19.1263 97.3071 18.7027 99.2262 18.7027C101.128 18.7027 102.779 19.1263 104.18 19.9735C105.597 20.8206 106.678 21.9704 107.421 23.4227C108.165 24.875 108.536 26.4569 108.536 28.1686C108.536 29.8975 108.165 31.4708 107.421 32.8885C106.678 34.3235 105.597 35.4646 104.18 36.3118C102.779 37.1589 101.128 37.5825 99.2262 37.5825ZM99.2262 33.874C100.696 33.874 101.846 33.3553 102.675 32.318C103.523 31.2806 103.946 29.8975 103.946 28.1686C103.946 26.4396 103.523 25.0479 102.675 23.9932C101.846 22.9386 100.696 22.4113 99.2262 22.4113C97.7394 22.4113 96.581 22.9386 95.7511 23.9932C94.9212 25.0479 94.5063 26.4396 94.5063 28.1686C94.5063 29.8975 94.9212 31.2806 95.7511 32.318C96.581 33.3553 97.7394 33.874 99.2262 33.874ZM119.921 37.5825C118.002 37.5825 116.343 37.1589 114.942 36.3118C113.542 35.4646 112.461 34.3235 111.7 32.8885C110.957 31.4708 110.585 29.8975 110.585 28.1686C110.585 26.4569 110.957 24.875 111.7 23.4227C112.461 21.9704 113.542 20.8206 114.942 19.9735C116.343 19.1263 118.002 18.7027 119.921 18.7027C121.823 18.7027 123.474 19.1263 124.875 19.9735C126.292 20.8206 127.373 21.9704 128.117 23.4227C128.86 24.875 129.232 26.4569 129.232 28.1686C129.232 29.8975 128.86 31.4708 128.117 32.8885C127.373 34.3235 126.292 35.4646 124.875 36.3118C123.474 37.1589 121.823 37.5825 119.921 37.5825ZM119.921 33.874C121.391 33.874 122.541 33.3553 123.371 32.318C124.218 31.2806 124.641 29.8975 124.641 28.1686C124.641 26.4396 124.218 25.0479 123.371 23.9932C122.541 22.9386 121.391 22.4113 119.921 22.4113C118.435 22.4113 117.276 22.9386 116.446 23.9932C115.616 25.0479 115.201 26.4396 115.201 28.1686C115.201 29.8975 115.616 31.2806 116.446 32.318C117.276 33.3553 118.435 33.874 119.921 33.874ZM144.429 9.98895H148.915V37.2195H144.662L144.61 36.0524C143.902 36.5711 143.167 36.9515 142.406 37.1935C141.645 37.4529 140.746 37.5825 139.709 37.5825C137.928 37.5825 136.407 37.1589 135.145 36.3118C133.865 35.4646 132.906 34.3235 132.266 32.8885C131.609 31.4708 131.28 29.8975 131.28 28.1686C131.28 26.4569 131.609 24.8836 132.266 23.4486C132.906 22.0309 133.865 20.8984 135.145 20.0513C136.407 19.2041 137.928 18.7805 139.709 18.7805C141.472 18.7805 143.046 19.2646 144.429 20.2328V9.98895ZM140.357 33.874C141.775 33.874 142.847 33.364 143.573 32.3439C144.282 31.3411 144.636 29.9493 144.636 28.1686C144.636 26.4051 144.282 25.0133 143.573 23.9932C142.847 22.9904 141.775 22.4891 140.357 22.4891C138.957 22.4891 137.859 23.0077 137.064 24.0451C136.286 25.0824 135.897 26.4569 135.897 28.1686C135.897 29.8975 136.286 31.2806 137.064 32.318C137.859 33.3553 138.957 33.874 140.357 33.874ZM170.7 18.7805C172.429 18.7805 173.907 19.2041 175.135 20.0513C176.362 20.8984 177.296 22.0309 177.935 23.4486C178.558 24.8836 178.869 26.4569 178.869 28.1686C178.869 29.8975 178.558 31.4708 177.935 32.8885C177.296 34.3235 176.362 35.4646 175.135 36.3118C173.907 37.1589 172.429 37.5825 170.7 37.5825C168.798 37.5825 167.069 37.0639 165.513 36.0265L165.435 37.2195H161.234V9.98895H165.721V20.4143C167.207 19.3251 168.867 18.7805 170.7 18.7805ZM170.051 33.874C171.383 33.874 172.42 33.3553 173.164 32.318C173.89 31.2806 174.253 29.8975 174.253 28.1686C174.253 26.4569 173.89 25.0824 173.164 24.0451C172.42 23.0077 171.383 22.4891 170.051 22.4891C168.53 22.4891 167.389 22.9904 166.628 23.9932C165.885 25.0133 165.513 26.4051 165.513 28.1686C165.513 29.9493 165.885 31.3411 166.628 32.3439C167.389 33.364 168.53 33.874 170.051 33.874ZM190.228 37.5825C188.326 37.5825 186.675 37.1589 185.275 36.3118C183.857 35.4646 182.776 34.3235 182.033 32.8885C181.289 31.4708 180.918 29.8975 180.918 28.1686C180.918 26.4569 181.289 24.875 182.033 23.4227C182.776 21.9704 183.857 20.8206 185.275 19.9735C186.675 19.1263 188.326 18.7027 190.228 18.7027C192.147 18.7027 193.807 19.1263 195.207 19.9735C196.608 20.8206 197.688 21.9704 198.449 23.4227C199.192 24.875 199.564 26.4569 199.564 28.1686C199.564 29.8975 199.192 31.4708 198.449 32.8885C197.688 34.3235 196.608 35.4646 195.207 36.3118C193.807 37.1589 192.147 37.5825 190.228 37.5825ZM190.228 33.874C191.715 33.874 192.873 33.3553 193.703 32.318C194.533 31.2806 194.948 29.8975 194.948 28.1686C194.948 26.4396 194.533 25.0479 193.703 23.9932C192.873 22.9386 191.715 22.4113 190.228 22.4113C188.758 22.4113 187.609 22.9386 186.779 23.9932C185.932 25.0479 185.508 26.4396 185.508 28.1686C185.508 29.8975 185.932 31.2806 186.779 32.318C187.609 33.3553 188.758 33.874 190.228 33.874ZM204.154 46.011L208.174 36.0265L200.627 19.0658H205.633L210.275 30.7619L214.995 19.0658H220L208.641 46.011H204.154Z" fill="#321E0F"/>
            <path d="M18.7483 11.6278C18.7483 12.0323 18.909 12.4202 19.195 12.7063C19.481 12.9923 19.869 13.153 20.2735 13.153C20.678 13.153 21.0659 12.9923 21.352 12.7063C21.638 12.4202 21.7987 12.0323 21.7987 11.6278C21.7987 11.2233 21.638 10.8353 21.352 10.5493C21.0659 10.2633 20.678 10.1026 20.2735 10.1026C19.869 10.1026 19.481 10.2633 19.195 10.5493C18.909 10.8353 18.7483 11.2233 18.7483 11.6278ZM21.9625 13.6879C21.9625 14.0924 22.1232 14.4803 22.4092 14.7664C22.6952 15.0524 23.0832 15.2131 23.4877 15.2131C23.8922 15.2131 24.2801 15.0524 24.5661 14.7664C24.8522 14.4803 25.0129 14.0924 25.0129 13.6879C25.0129 13.2834 24.8522 12.8955 24.5661 12.6094C24.2801 12.3234 23.8922 12.1627 23.4877 12.1627C23.0832 12.1627 22.6952 12.3234 22.4092 12.6094C22.1232 12.8955 21.9625 13.2834 21.9625 13.6879ZM15.6737 29.9168C16.897 30.2784 18.2223 30.2086 19.6492 29.7086C19.8176 27.1617 19.2962 25.1581 18.3532 25.026C17.3186 24.8807 16.1501 27.04 15.6737 29.9168ZM42.4258 40.6546C43.543 42.1183 44.4069 44.0942 44.8914 46.3701C46.5495 45.0141 48.5583 44.2206 50.7234 44.2206C51.5164 44.2206 52.2892 44.3273 53.0309 44.5291C48.8369 45.6693 45.6186 49.8507 45.1077 55.0166H14.6004C14.23 53.5689 14.0444 52.0803 14.0479 50.586C14.0479 47.3921 14.8686 44.4749 16.221 42.2516C15.3444 39.2283 14.8541 35.8474 14.8541 32.2803C14.8541 31.4919 14.8778 30.7121 14.9251 29.9433C8.85143 28.5574 4.23808 25.21 2.95483 21.0961C2.51165 21.0412 2.08381 20.8987 1.69619 20.677C1.30857 20.4552 0.968897 20.1586 0.696926 19.8044C0.424955 19.4502 0.226109 19.0455 0.11195 18.6137C-0.00220886 18.182 -0.0294035 17.7319 0.0319474 17.2895C0.0932983 16.8472 0.241971 16.4215 0.469321 16.0371C0.69667 15.6527 0.998162 15.3174 1.35627 15.0506C1.71437 14.7838 2.12194 14.5908 2.55528 14.4829C2.98863 14.375 3.4391 14.3543 3.8805 14.4221C6.59464 10.0164 13.316 6.89851 21.1781 6.89851C23.496 6.89851 25.7142 7.16958 27.7599 7.66442C27.9929 3.83602 28.8955 0.983459 29.9717 0.983459C31.1909 0.983459 32.1858 4.64057 32.2406 9.2297L32.4568 9.33351C34.2246 5.61353 36.3152 3.08683 37.3557 3.52862C38.4642 3.99924 37.9768 7.67019 36.2841 11.8533C37.5708 12.9975 38.5461 14.2946 39.1315 15.6932C41.751 19.919 43.374 25.7902 43.374 32.2809C43.374 35.2321 43.0383 38.0558 42.4258 40.6546Z" fill="url(#paint0_linear)"/>
        </g>
        <defs>
            <linearGradient id="paint0_linear" x1="-1.82133" y1="1.91702" x2="46.241" y2="24.3289" gradientUnits="userSpaceOnUse">
                <stop stop-color="#CD8B65"/>
                <stop offset="1" stop-color="#BB6B3D"/>
            </linearGradient>
            <clipPath id="clip0">
                <rect width="220" height="56" fill="white"/>
            </clipPath>
        </defs>
    </symbol>
    <symbol id="paw" viewBox="0 0 34 34">
        <path d="M25.142 19.3238C22.8544 16.5619 19.963 15.0408 17.0001 15.0408C14.0371 15.0408 11.1456 16.5619 8.85818 19.3238C6.80198 21.8064 5.57452 24.9352 5.57452 27.6934C5.57452 29.0332 5.98412 30.0537 6.79188 30.7267C7.58916 31.3911 8.64176 31.6158 9.81609 31.6157C11.0657 31.6157 12.4531 31.3612 13.8164 31.1112C15.0077 30.8926 16.1329 30.6862 17.0001 30.6862C17.7486 30.6862 18.804 30.8821 19.9212 31.0895C22.5321 31.5743 25.4914 32.1236 27.2009 30.7022C28.0136 30.0265 28.4256 29.0142 28.4256 27.6934C28.4257 24.9352 27.1982 21.8064 25.142 19.3238ZM25.9272 29.1704C24.9363 29.9944 22.3571 29.5155 20.2847 29.1309C19.0747 28.9062 17.9319 28.694 17 28.694C15.9515 28.694 14.7398 28.9164 13.4568 29.1517C11.4692 29.5163 8.99557 29.9701 8.06695 29.1963C7.94317 29.0931 7.56651 28.7793 7.56651 27.6933C7.56651 25.4191 8.64933 22.699 10.3923 20.5945C12.2945 18.2978 14.6412 17.0329 16.9999 17.0329C19.3587 17.0329 21.7053 18.2978 23.6075 20.5945C25.3506 22.699 26.4333 25.4191 26.4333 27.6933C26.4335 28.7495 26.0525 29.0663 25.9272 29.1704Z" fill="currentColor"/>
        <path d="M25.3758 4.32617C24.5388 3.09215 23.3403 2.38452 22.0876 2.38452C20.8348 2.38452 19.6363 3.09228 18.7993 4.32617C18.0305 5.45979 17.607 6.94849 17.607 8.51807C17.607 10.0876 18.0304 11.5763 18.7993 12.71C19.6363 13.9439 20.8348 14.6517 22.0876 14.6517C23.3404 14.6517 24.5388 13.9439 25.3758 12.71C26.1447 11.5763 26.5681 10.0876 26.5681 8.51807C26.5681 6.94849 26.1447 5.45973 25.3758 4.32617ZM23.7271 11.5917C23.4567 11.9905 22.884 12.6596 22.0876 12.6596C21.2912 12.6596 20.7185 11.9906 20.448 11.5917C19.9085 10.7963 19.5991 9.67599 19.5991 8.51807C19.5991 7.36008 19.9086 6.2398 20.448 5.44439C20.7185 5.04562 21.2912 4.37658 22.0876 4.37658C22.884 4.37658 23.4567 5.04555 23.7271 5.44439C24.2666 6.2398 24.576 7.36014 24.576 8.51807C24.5759 9.67599 24.2666 10.7963 23.7271 11.5917Z" fill="currentColor"/>
        <path d="M15.2007 4.326C14.3637 3.09197 13.1653 2.38428 11.9125 2.38428C10.6596 2.38428 9.46114 3.09203 8.62422 4.326C7.85537 5.45962 7.4319 6.94831 7.4319 8.51789C7.4319 10.0875 7.85531 11.5762 8.62422 12.7098C9.46121 13.9438 10.6596 14.6516 11.9125 14.6516C13.1653 14.6516 14.3637 13.9438 15.2007 12.7098C15.9696 11.5762 16.393 10.0875 16.393 8.51789C16.393 6.94831 15.9696 5.45955 15.2007 4.326ZM13.5519 11.5916C13.2814 11.9904 12.7087 12.6594 11.9124 12.6594C11.116 12.6594 10.5433 11.9904 10.2728 11.5916C9.73334 10.7962 9.42395 9.67588 9.42395 8.51796C9.42395 7.35996 9.73341 6.23969 10.2728 5.44428C10.5433 5.04551 11.116 4.37646 11.9124 4.37646C12.7088 4.37646 13.2814 5.04544 13.5519 5.44428C14.0914 6.23969 14.4008 7.36003 14.4008 8.51796C14.4008 9.67588 14.0914 10.7962 13.5519 11.5916Z" fill="currentColor"/>
        <path d="M33.802 13.9541C33.4646 12.8063 32.7414 11.9724 31.7657 11.6059C30.9805 11.3109 30.0942 11.3609 29.2699 11.7467C28.1341 12.2782 27.2056 13.3758 26.7229 14.7579C26.3284 15.8873 26.2791 17.0811 26.5844 18.1195C26.9218 19.2673 27.645 20.1013 28.6208 20.4678C28.9585 20.5946 29.3148 20.6576 29.6768 20.6576C30.1567 20.6576 30.6468 20.5468 31.1166 20.3269C32.2525 19.7954 33.1809 18.6979 33.6637 17.3158V17.3157C34.0581 16.1864 34.1074 14.9925 33.802 13.9541ZM31.7829 16.6588C31.4804 17.5248 30.9156 18.2215 30.2722 18.5226C30.0356 18.6332 29.6787 18.737 29.3213 18.6028C28.4588 18.2788 28.1233 16.7891 28.6034 15.4149C28.906 14.5489 29.4708 13.8521 30.1142 13.551C30.2711 13.4776 30.4808 13.4073 30.7084 13.4073C30.8242 13.4073 30.9447 13.4255 31.0651 13.4707C31.9276 13.7947 32.2631 15.2845 31.7829 16.6588Z" fill="currentColor"/>
        <path d="M7.27726 14.7578C6.79442 13.3757 5.86599 12.2782 4.73018 11.7467C3.90588 11.3609 3.01949 11.311 2.23437 11.6058C1.25859 11.9724 0.535364 12.8064 0.197954 13.9541C-0.107316 14.9925 -0.058109 16.1863 0.336411 17.3157V17.3158C0.819317 18.6979 1.74768 19.7954 2.88349 20.3269C3.35338 20.5468 3.84339 20.6576 4.32331 20.6576C4.68536 20.6576 5.04169 20.5945 5.3793 20.4677C6.35521 20.1012 7.07837 19.2672 7.41578 18.1195C7.72092 17.0811 7.67171 15.8873 7.27726 14.7578ZM4.67872 18.6028C4.32138 18.7371 3.96438 18.6333 3.72784 18.5226C3.08443 18.2215 2.51958 17.5248 2.2171 16.6588V16.6589C1.73705 15.2846 2.07247 13.7949 2.93495 13.4708C3.29222 13.3366 3.64929 13.4404 3.88589 13.5511C4.52937 13.8522 5.09415 14.5489 5.39663 15.4149C5.87668 16.7892 5.5412 18.2788 4.67872 18.6028Z" fill="currentColor"/>
    </symbol>
    <symbol id="arrow-down" viewBox="0 0 14 7">
        <path d="M12.9393 1L7.30164 6L1.664 1" stroke="currentColor" stroke-width="2" stroke-linecap="round" stroke-linejoin="round"/>
    </symbol>
    <symbol id="slovak-flag" viewBox="0 0 23 17">
        <path d="M21.2775 0.965524H1.72253C0.771174 0.965524 0 1.7367 0 2.68805V5.98851H23V2.68805C23 1.7367 22.2288 0.965524 21.2775 0.965524Z" fill="#F5F5F5"/>
        <path d="M0 14.3119C0 15.2633 0.771174 16.0345 1.72253 16.0345H21.2775C22.2288 16.0345 23 15.2633 23 14.3119V11.0115H0V14.3119Z" fill="#FF4B55"/>
        <path d="M23 5.98842H0V11.0111H23V5.98842Z" fill="#41479B"/>
        <path d="M5.84993 12.2413C5.73255 12.1739 2.97412 10.5695 2.97412 8.10343V4.73276H8.92241V8.10343C8.92241 10.5695 6.16398 12.1739 6.0466 12.2413L5.94826 12.2974L5.84993 12.2413Z" fill="#FF4B55"/>
        <path d="M7.50632 7.50862L6.57154 7.63175H6.26001V7.07391H6.44693L7.19475 7.19704L7.09345 6.76233L7.19475 6.32763L6.44693 6.45071H6.26001V6.26231L6.38314 5.32758L5.94843 5.45421L5.51372 5.32758L5.63685 6.26231V6.45071H5.44984L4.70211 6.32763L4.80337 6.76233L4.70211 7.19704L5.44984 7.07391H5.63685V7.63175H5.32527L4.39053 7.50862L4.51712 7.94333L4.39053 8.37799L5.32527 8.25486H5.63685V9.68967H6.26001V8.25486H6.57154L7.50632 8.37799L7.37973 7.94333L7.50632 7.50862Z" fill="#F5F5F5"/>
        <path d="M5.94822 9.09481C5.53862 9.09481 5.18733 9.34332 5.03622 9.69762C5.00953 9.69542 4.98402 9.68962 4.95684 9.68962C4.42896 9.68962 4.00153 10.1034 3.97125 10.6236C4.77423 11.6121 5.77999 12.2011 5.84989 12.2413L5.94822 12.2974L6.04655 12.2413C6.11645 12.2011 7.12221 11.6121 7.92519 10.6236C7.89495 10.1034 7.46748 9.68962 6.9396 9.68962C6.91242 9.68962 6.88686 9.69542 6.86022 9.69762C6.70911 9.34332 6.35782 9.09481 5.94822 9.09481Z" fill="#41479B"/>
        <path d="M8.72416 4.93105C8.72416 4.93105 8.72416 7.31038 8.72416 8.10347C8.72416 10.4828 5.94831 12.069 5.94831 12.069C5.94831 12.069 3.17245 10.4828 3.17245 8.10347C3.17245 7.31038 3.17245 4.93105 3.17245 4.93105H8.72416ZM9.12069 4.53448H8.72412H3.17245H2.77588V4.93105V8.10347C2.77588 10.6832 5.63008 12.3438 5.75155 12.4133L5.94831 12.5257L6.14506 12.4133C6.26658 12.3438 9.12073 10.6832 9.12073 8.10347V4.93105V4.53448H9.12069Z" fill="#F5F5F5"/>
    </symbol>
    <symbol id="czech-flag" viewBox="0 0 23 15">
        <path d="M23 0H0V15H23V0Z" fill="#FF4B55"/>
        <path d="M23 0H0V7.5H23V0Z" fill="#F5F5F5"/>
        <path d="M11.5 7.5L0 0V15L11.5 7.5Z" fill="#41479B"/>

    </symbol>
</svg>