<?xml version="1.0" standalone="no"?>
<!DOCTYPE svg PUBLIC "-//W3C//DTD SVG 20010904//EN"
 "http://www.w3.org/TR/2001/REC-SVG-20010904/DTD/svg10.dtd">
<svg version="1.0" xmlns="http://www.w3.org/2000/svg"
 width="896.000000pt" height="896.000000pt" viewBox="0 0 896.000000 896.000000"
 preserveAspectRatio="xMidYMid meet">
<metadata>
Created by potrace 1.14, written by Peter Selinger 2001-2017
</metadata>
<g transform="translate(0.000000,896.000000) scale(0.100000,-0.100000)"
fill="#000000" stroke="none">
<path d="M4915 8790 c-22 -10 -50 -30 -63 -44 -34 -37 -95 -160 -121 -241 -12
-38 -26 -85 -32 -103 -6 -18 -12 -45 -14 -60 -2 -15 -4 -28 -6 -29 -2 -4 -4
-13 -13 -63 -14 -75 -15 -84 -21 -110 -7 -31 -17 -115 -19 -152 0 -16 -3 -28
-6 -28 -3 0 -7 -35 -9 -78 -1 -42 -4 -86 -6 -97 -1 -11 -3 -28 -4 -37 -1 -14
-6 -15 -32 -8 -31 9 -203 44 -269 55 -256 42 -456 57 -750 58 -164 1 -230 -2
-435 -17 -56 -4 -146 -15 -186 -21 -14 -3 -43 -7 -65 -10 -87 -13 -101 -15
-149 -25 -27 -5 -62 -12 -77 -15 -27 -5 -51 -10 -93 -19 -11 -3 -47 -12 -80
-21 -64 -18 -86 -23 -124 -31 -13 -3 -34 -10 -45 -16 -12 -6 -23 -11 -26 -10
-7 2 -54 -10 -65 -17 -5 -3 -17 -7 -26 -8 -9 -1 -27 -7 -40 -12 -13 -5 -27 -9
-31 -10 -4 -1 -32 -13 -63 -26 -30 -14 -56 -25 -58 -24 -3 1 -52 -18 -100 -39
-50 -23 -75 -32 -83 -31 -4 0 -10 -3 -13 -8 -3 -4 -42 -26 -86 -47 -72 -36
-312 -175 -339 -197 -6 -5 -44 -34 -85 -65 -203 -153 -349 -305 -473 -488
l-26 -40 -99 -1 c-79 -2 -112 -8 -170 -30 -40 -15 -73 -31 -73 -36 0 -5 -3 -8
-8 -7 -28 9 -167 -129 -203 -202 -13 -27 -28 -50 -32 -50 -5 0 -5 -5 -2 -10 4
-6 2 -16 -3 -23 -28 -34 -38 -209 -17 -299 15 -62 55 -158 67 -158 4 0 8 -6 8
-14 0 -12 97 -117 131 -141 60 -44 181 -95 223 -95 20 0 28 -10 46 -57 12 -32
31 -77 41 -100 11 -24 19 -47 19 -53 0 -5 3 -10 8 -10 4 0 13 -14 21 -31 21
-47 122 -197 182 -269 113 -136 380 -373 463 -411 14 -7 26 -16 26 -20 0 -4 9
-11 20 -14 11 -3 26 -12 32 -19 27 -26 380 -212 423 -223 6 -1 59 -22 120 -47
60 -24 113 -42 117 -40 4 3 8 0 8 -5 0 -6 3 -10 8 -9 4 1 36 -8 72 -20 36 -12
68 -22 72 -23 4 0 38 -9 75 -20 68 -20 87 -25 121 -33 77 -18 71 -10 66 -94
-16 -254 0 -745 31 -981 3 -20 8 -61 11 -91 10 -92 12 -109 17 -117 3 -4 8
-33 11 -64 3 -31 11 -80 17 -110 6 -30 12 -63 14 -74 1 -11 7 -38 13 -60 6
-22 13 -53 16 -70 9 -51 16 -85 32 -143 9 -32 17 -67 19 -78 2 -12 8 -31 14
-42 16 -30 14 -65 -6 -104 -10 -18 -20 -35 -23 -38 -6 -6 -75 -148 -98 -200
-45 -106 -120 -340 -138 -435 -2 -11 -8 -42 -14 -70 -9 -45 -13 -66 -24 -145
-4 -25 -16 -136 -22 -200 -4 -47 -4 -351 1 -420 6 -91 17 -181 30 -240 3 -14
7 -38 9 -55 2 -16 7 -41 10 -55 3 -14 8 -36 11 -50 2 -14 8 -41 13 -60 l8 -34
129 1 c72 1 139 2 150 2 11 1 99 0 195 -2 96 -1 181 1 188 6 7 6 12 5 12 -2 0
-7 8 -8 25 -1 14 5 25 6 25 2 0 -4 116 -6 257 -4 142 1 263 2 268 2 6 0 89 -1
185 -3 96 -1 181 1 188 6 7 6 12 5 12 -2 0 -7 8 -8 25 -1 14 5 25 6 25 2 0 -4
116 -6 257 -4 142 1 263 2 268 2 6 0 89 -1 185 -3 96 -1 181 1 188 6 6 5 12 6
12 1 0 -5 55 -8 122 -6 68 1 128 2 133 2 160 -5 363 -3 373 3 7 6 12 5 12 -2
0 -7 8 -8 25 -1 14 5 25 6 25 2 0 -4 116 -6 257 -4 142 1 263 2 268 2 6 0 89
-1 185 -3 96 -1 181 1 188 6 7 6 12 5 12 -2 0 -7 8 -8 25 -1 14 5 25 6 25 2 0
-5 316 -6 525 -2 6 0 29 -1 53 -3 23 -2 46 -1 50 2 5 4 15 46 22 96 8 50 15
95 16 100 1 6 5 24 8 40 3 17 10 45 15 63 5 18 10 33 9 35 -2 13 56 198 83
262 7 17 13 33 13 36 2 16 52 115 61 121 5 4 7 8 3 8 -4 0 6 23 22 50 17 28
30 53 30 56 0 10 131 202 145 214 8 7 15 16 15 21 0 18 195 220 259 269 18 14
38 30 44 36 26 23 117 84 127 84 5 0 10 4 10 9 0 12 232 124 313 151 38 12 65
26 60 30 -4 5 -30 11 -57 15 -27 3 -52 8 -55 9 -10 6 -153 19 -226 20 -83 2
-232 -14 -324 -35 -70 -15 -235 -71 -242 -82 -3 -5 -8 -8 -10 -6 -5 3 -80 -31
-98 -45 -7 -5 -19 -11 -25 -12 -14 -2 -123 -71 -144 -91 -7 -7 -17 -13 -21
-13 -4 0 -22 -13 -41 -30 -18 -16 -35 -29 -36 -27 -2 1 -5 14 -7 27 -6 34 -27
112 -34 130 -3 8 -7 22 -9 30 -6 29 -35 125 -46 150 -6 14 -12 30 -14 35 -23
102 -229 492 -277 526 -8 6 -6 29 8 89 3 14 8 39 11 55 3 17 9 48 14 70 5 22
12 56 15 75 3 19 8 42 10 50 4 18 16 101 21 150 1 19 3 35 4 35 3 0 8 32 14
91 4 32 9 75 11 94 3 19 7 67 10 105 2 39 5 70 6 70 3 0 8 103 13 275 3 102 6
187 7 190 1 3 1 8 1 11 -1 4 -4 85 -7 180 -7 222 -19 389 -41 559 -17 132 -25
184 -31 210 -3 14 -6 28 -5 32 1 4 -3 31 -9 60 -6 29 -13 67 -16 83 -3 17 -6
35 -8 40 -1 6 -5 28 -9 50 -4 22 -11 51 -16 65 -5 14 -11 39 -14 55 -8 44 -22
102 -41 170 -9 33 -18 67 -20 75 -2 8 -13 44 -25 80 -12 36 -23 72 -25 80 -9
34 -76 224 -95 268 -10 23 -17 38 -47 112 -10 25 -39 89 -65 143 -27 54 -48
104 -48 112 0 7 -4 15 -9 17 -4 2 -26 37 -48 78 -21 41 -50 93 -64 115 -14 22
-45 81 -69 130 -24 50 -46 92 -49 95 -3 3 -17 25 -30 50 -14 25 -27 47 -30 50
-3 3 -33 41 -66 85 -32 44 -101 123 -153 175 -106 108 -102 82 -43 235 17 44
30 80 30 80 0 0 4 11 9 25 35 91 100 322 128 455 2 11 6 30 9 43 3 12 7 32 10
43 2 12 7 47 10 78 4 31 8 67 11 81 6 32 6 199 0 225 -20 94 -52 149 -93 160
-15 5 -31 8 -35 7 -4 -1 -21 -3 -37 -4 -17 -1 -31 -6 -31 -10 0 -4 -5 -8 -11
-8 -17 0 -91 -55 -139 -103 -92 -91 -151 -165 -235 -292 -33 -49 -63 -91 -67
-93 -5 -2 -8 -8 -8 -13 0 -6 -23 -49 -50 -95 -62 -105 -125 -226 -122 -236 1
-5 -2 -8 -6 -8 -4 0 -14 -16 -21 -35 -13 -38 -34 -46 -46 -17 -4 9 -9 60 -11
112 -4 132 -15 273 -29 395 -3 28 -8 66 -10 85 -2 19 -4 35 -5 35 -1 0 -3 9
-5 20 -1 11 -6 43 -10 70 -4 28 -9 53 -11 56 -2 3 -6 19 -9 35 -4 24 -19 84
-39 164 -11 40 -59 158 -87 210 -36 68 -70 103 -119 124 -33 13 -40 13 -75 -4z
m-1437 -1460 c51 -13 123 -75 147 -126 9 -20 18 -62 20 -94 9 -185 -192 -314
-351 -225 -55 31 -71 45 -101 95 -20 34 -39 105 -34 125 2 6 4 19 5 30 12 95
86 175 183 200 52 13 68 13 131 -5z m515 -330 c26 -7 47 -17 47 -21 0 -5 4 -9
10 -9 17 0 51 -34 75 -75 38 -66 47 -143 24 -201 -7 -16 -12 -32 -11 -35 3
-16 -82 -92 -124 -110 -130 -58 -287 14 -328 151 -15 49 -15 62 -2 136 10 55
80 135 138 157 75 27 89 28 171 7z m-876 -2049 c37 -3 123 -118 138 -185 1 -6
5 -18 8 -26 3 -8 8 -28 11 -45 4 -16 9 -41 11 -55 15 -74 22 -180 21 -299 l-1
-134 -52 -17 c-29 -9 -53 -16 -53 -14 0 2 -10 0 -23 -5 -27 -10 -79 -20 -152
-28 -142 -15 -355 10 -355 43 0 7 7 43 16 81 9 37 18 79 20 93 3 14 8 34 11
45 4 11 8 25 9 30 18 85 109 298 158 370 64 95 151 160 201 150 11 -2 25 -4
32 -4z"/>
</g>
</svg>
